<svg width="115" height="127" viewBox="0 0 115 127" fill="none" xmlns="http://www.w3.org/2000/svg">
<ellipse cx="57.203" cy="63.5" rx="57.203" ry="63.5" fill="#333333"/>
<ellipse cx="57.2031" cy="63.5" rx="42.9023" ry="47.625" fill="#F0F0F4"/>
<path d="M67.5711 95.2338C67.5711 100.629 62.5342 105.003 57.203 105.003C51.8718 105.003 46.835 100.629 46.835 95.2338C46.835 89.8384 51.8718 88.314 57.203 88.314C62.5342 88.314 67.5711 89.8384 67.5711 95.2338Z" fill="#333333"/>
<path d="M53.6544 80.4833C55.1483 77.6109 59.2579 77.6109 60.7518 80.4833L66.5476 91.627C67.9325 94.2898 66.0003 97.4727 62.9989 97.4727H51.4073C48.4059 97.4727 46.4737 94.2898 47.8586 91.627L53.6544 80.4833Z" fill="#333333"/>
<path d="M46.8357 31.128C46.8357 25.7326 51.8725 21.3587 57.2037 21.3587C62.5349 21.3587 67.5718 25.7326 67.5718 31.128C67.5718 36.5234 62.5349 38.0479 57.2037 38.0479C51.8725 38.0479 46.8357 36.5234 46.8357 31.128Z" fill="#333333"/>
<path d="M60.7524 45.8785C59.2584 48.7509 55.1488 48.7509 53.6549 45.8785L47.8591 34.7348C46.4742 32.072 48.4064 28.8892 51.4079 28.8892H62.9994C66.0009 28.8892 67.9331 32.072 66.5481 34.7348L60.7524 45.8785Z" fill="#333333"/>
<path d="M37.4759 89.7927C33.2667 92.4904 27.336 89.8351 24.6704 84.7099C22.0048 79.5847 22.8986 72.5556 27.1078 69.8579C31.317 67.1602 35.0248 71.2402 37.6904 76.3654C40.356 81.4906 41.6851 87.095 37.4759 89.7927Z" fill="#333333"/>
<path d="M42.8146 69.0387C45.6905 69.0387 47.4064 72.3379 45.9685 75.1026L40.1493 86.2913C38.6531 89.168 34.8943 89.3072 33.4547 86.5392L27.6355 75.3506C26.1959 72.5827 28.1839 69.0387 31.1763 69.0387L42.8146 69.0387Z" fill="#333333"/>
<path d="M75.7682 38.9395C79.89 36.0803 85.9005 38.5042 88.7257 43.5231C91.5508 48.5419 90.8785 55.6013 86.7567 58.4605C82.6348 61.3196 78.8011 57.3858 75.976 52.3669C73.1509 47.3481 71.6464 41.7986 75.7682 38.9395Z" fill="#333333"/>
<path d="M71.1152 59.8869C68.2362 59.9985 66.4042 56.7439 67.7566 53.9204L73.2222 42.5096C74.6224 39.5863 78.3602 39.3195 79.8881 42.0339L86.0574 52.9936C87.5853 55.708 85.7308 59.3203 82.7501 59.4359L71.1152 59.8869Z" fill="#333333"/>
<path d="M26.991 56.4484C22.9148 53.5099 22.3536 46.4385 25.2572 41.4751C28.1608 36.5118 34.2085 34.2047 38.2847 37.1433C42.3609 40.0818 40.7694 45.6014 37.8658 50.5647C34.9623 55.528 31.0673 59.387 26.991 56.4484Z" fill="#333333"/>
<path d="M46.0524 52.2616C47.3614 55.1134 45.4713 58.3442 42.592 58.1767L30.9643 57.5002C27.9909 57.3273 26.2041 53.683 27.7756 50.9967L34.1172 40.1565C35.6887 37.4702 39.4145 37.8 40.7663 40.745L46.0524 52.2616Z" fill="#333333"/>
<path d="M88.0815 70.6561C92.1577 73.5946 92.7189 80.666 89.8153 85.6293C86.9118 90.5927 80.864 92.8998 76.7878 89.9612C72.7116 87.0227 74.3031 81.5031 77.2067 76.5398C80.1102 71.5765 84.0053 67.7175 88.0815 70.6561Z" fill="#333333"/>
<path d="M69.0201 74.8429C67.7111 71.9911 69.6012 68.7603 72.4805 68.9278L84.1082 69.6042C87.0816 69.7772 88.8684 73.4215 87.2969 76.1078L80.9553 86.948C79.3838 89.6343 75.658 89.3045 74.3062 86.3595L69.0201 74.8429Z" fill="#333333"/>
<ellipse cx="56.917" cy="63.5002" rx="5.43429" ry="5.715" fill="#333333"/>
</svg>
