<svg width="555" height="128" viewBox="0 0 555 128" fill="none" xmlns="http://www.w3.org/2000/svg">
<ellipse cx="89.2462" cy="63.5" rx="57.203" ry="63.5" fill="#333333"/>
<ellipse cx="89.2463" cy="63.5" rx="42.9023" ry="47.625" fill="#F0F0F4"/>
<path d="M99.6143 95.2338C99.6143 100.629 94.5774 105.003 89.2462 105.003C83.915 105.003 78.8782 100.629 78.8782 95.2338C78.8782 89.8384 83.915 88.314 89.2462 88.314C94.5774 88.314 99.6143 89.8384 99.6143 95.2338Z" fill="#333333"/>
<path d="M85.6976 80.4833C87.1915 77.6109 91.3011 77.6109 92.795 80.4833L98.5908 91.627C99.9758 94.2898 98.0436 97.4727 95.0421 97.4727H83.4505C80.4491 97.4727 78.5169 94.2898 79.9018 91.627L85.6976 80.4833Z" fill="#333333"/>
<path d="M78.8789 31.128C78.8789 25.7326 83.9157 21.3587 89.2469 21.3587C94.5782 21.3587 99.615 25.7326 99.615 31.128C99.615 36.5234 94.5782 38.0479 89.2469 38.0479C83.9157 38.0479 78.8789 36.5234 78.8789 31.128Z" fill="#333333"/>
<path d="M92.7958 45.8785C91.3019 48.7509 87.1923 48.7509 85.6984 45.8785L79.9026 34.7348C78.5177 32.072 80.4499 28.8892 83.4513 28.8892H95.0429C98.0443 28.8892 99.9765 32.072 98.5916 34.7348L92.7958 45.8785Z" fill="#333333"/>
<path d="M69.5193 89.7927C65.3101 92.4904 59.3795 89.8351 56.7139 84.7099C54.0483 79.5847 54.9421 72.5556 59.1513 69.8579C63.3605 67.1602 67.0682 71.2402 69.7338 76.3654C72.3994 81.4906 73.7285 87.095 69.5193 89.7927Z" fill="#333333"/>
<path d="M74.8581 69.0387C77.734 69.0387 79.4499 72.3379 78.0119 75.1026L72.1927 86.2913C70.6966 89.168 66.9377 89.3072 65.4981 86.5392L59.6789 75.3506C58.2393 72.5827 60.2274 69.0387 63.2197 69.0387L74.8581 69.0387Z" fill="#333333"/>
<path d="M107.812 38.9395C111.933 36.0803 117.944 38.5042 120.769 43.5231C123.594 48.5419 122.922 55.6013 118.8 58.4605C114.678 61.3196 110.845 57.3858 108.019 52.3669C105.194 47.3481 103.69 41.7986 107.812 38.9395Z" fill="#333333"/>
<path d="M103.159 59.8869C100.28 59.9985 98.4476 56.7439 99.8001 53.9204L105.266 42.5096C106.666 39.5863 110.404 39.3195 111.932 42.0339L118.101 52.9936C119.629 55.708 117.774 59.3203 114.794 59.4359L103.159 59.8869Z" fill="#333333"/>
<path d="M59.0342 56.4484C54.958 53.5099 54.3968 46.4385 57.3004 41.4751C60.204 36.5118 66.2517 34.2047 70.3279 37.1433C74.4042 40.0818 72.8126 45.6014 69.9091 50.5647C67.0055 55.528 63.1105 59.387 59.0342 56.4484Z" fill="#333333"/>
<path d="M78.0959 52.2616C79.4048 55.1134 77.5148 58.3442 74.6355 58.1767L63.0078 57.5002C60.0343 57.3273 58.2475 53.683 59.8191 50.9967L66.1606 40.1565C67.7322 37.4702 71.458 37.8 72.8098 40.745L78.0959 52.2616Z" fill="#333333"/>
<path d="M120.125 70.6561C124.201 73.5946 124.762 80.666 121.859 85.6293C118.955 90.5927 112.908 92.8998 108.831 89.9612C104.755 87.0227 106.347 81.5031 109.25 76.5398C112.154 71.5765 116.049 67.7175 120.125 70.6561Z" fill="#333333"/>
<path d="M101.063 74.8429C99.7544 71.9911 101.644 68.7603 104.524 68.9278L116.151 69.6042C119.125 69.7772 120.912 73.4215 119.34 76.1078L112.999 86.948C111.427 89.6343 107.701 89.3045 106.349 86.3595L101.063 74.8429Z" fill="#333333"/>
<ellipse cx="88.9602" cy="63.5002" rx="5.43429" ry="5.715" fill="#333333"/>
<ellipse cx="225.5" cy="63.5" rx="57.5" ry="63.5" fill="#333333"/>
<ellipse cx="225.5" cy="63.5" rx="42.5" ry="47.5" fill="#F0F0F4"/>
<path d="M235.757 95.2343C235.757 100.63 230.721 105.004 225.389 105.004C220.058 105.004 215.021 100.63 215.021 95.2343C215.021 89.8389 220.058 88.3145 225.389 88.3145C230.721 88.3145 235.757 89.8389 235.757 95.2343Z" fill="#333333"/>
<path d="M221.841 80.4833C223.335 77.6109 227.444 77.6109 228.938 80.4833L234.734 91.627C236.119 94.2898 234.187 97.4727 231.185 97.4727H219.594C216.592 97.4727 214.66 94.2898 216.045 91.627L221.841 80.4833Z" fill="#333333"/>
<path d="M215.022 31.128C215.022 25.7326 220.059 21.3587 225.39 21.3587C230.721 21.3587 235.758 25.7326 235.758 31.128C235.758 36.5234 230.721 38.0479 225.39 38.0479C220.059 38.0479 215.022 36.5234 215.022 31.128Z" fill="#333333"/>
<path d="M228.939 45.8785C227.445 48.7509 223.335 48.7509 221.841 45.8785L216.046 34.7348C214.661 32.072 216.593 28.8892 219.594 28.8892H231.186C234.187 28.8892 236.12 32.072 234.735 34.7348L228.939 45.8785Z" fill="#333333"/>
<path d="M205.663 89.7927C201.453 92.4904 195.523 89.8351 192.857 84.7099C190.192 79.5847 191.085 72.5556 195.295 69.8579C199.504 67.1602 203.212 71.2402 205.877 76.3654C208.543 81.4906 209.872 87.095 205.663 89.7927Z" fill="#333333"/>
<path d="M211.001 69.0387C213.877 69.0387 215.593 72.3379 214.155 75.1026L208.336 86.2913C206.84 89.168 203.081 89.3072 201.641 86.5392L195.822 75.3506C194.383 72.5827 196.371 69.0387 199.363 69.0387L211.001 69.0387Z" fill="#333333"/>
<path d="M243.955 38.9395C248.077 36.0803 254.087 38.5042 256.912 43.5231C259.738 48.5419 259.065 55.6013 254.943 58.4605C250.822 61.3196 246.988 57.3858 244.163 52.3669C241.338 47.3481 239.833 41.7986 243.955 38.9395Z" fill="#333333"/>
<path d="M239.302 59.8869C236.423 59.9985 234.591 56.7439 235.943 53.9204L241.409 42.5096C242.809 39.5863 246.547 39.3195 248.075 42.0339L254.244 52.9936C255.772 55.708 253.918 59.3203 250.937 59.4359L239.302 59.8869Z" fill="#333333"/>
<path d="M195.178 56.4484C191.102 53.5099 190.54 46.4385 193.444 41.4751C196.348 36.5118 202.395 34.2047 206.471 37.1433C210.548 40.0818 208.956 45.6014 206.053 50.5647C203.149 55.528 199.254 59.387 195.178 56.4484Z" fill="#333333"/>
<path d="M214.239 52.2616C215.548 55.1134 213.658 58.3442 210.779 58.1767L199.151 57.5002C196.178 57.3273 194.391 53.683 195.962 50.9967L202.304 40.1565C203.875 37.4702 207.601 37.8 208.953 40.745L214.239 52.2616Z" fill="#333333"/>
<path d="M256.268 70.6561C260.344 73.5946 260.905 80.666 258.002 85.6293C255.098 90.5927 249.051 92.8998 244.974 89.9612C240.898 87.0227 242.49 81.5031 245.393 76.5398C248.297 71.5765 252.192 67.7175 256.268 70.6561Z" fill="#333333"/>
<path d="M237.207 74.8429C235.898 71.9911 237.788 68.7603 240.667 68.9278L252.295 69.6042C255.268 69.7772 257.055 73.4215 255.483 76.1078L249.142 86.948C247.57 89.6343 243.845 89.3045 242.493 86.3595L237.207 74.8429Z" fill="#333333"/>
<ellipse cx="225" cy="63.5" rx="6" ry="5.5" fill="#333333"/>
<ellipse cx="361.613" cy="63.5" rx="57.203" ry="63.5" fill="#333333"/>
<ellipse cx="361.613" cy="63.5" rx="42.9023" ry="47.625" fill="#F0F0F4"/>
<path d="M371.981 95.2338C371.981 100.629 366.945 105.003 361.613 105.003C356.282 105.003 351.245 100.629 351.245 95.2338C351.245 89.8384 356.282 88.314 361.613 88.314C366.945 88.314 371.981 89.8384 371.981 95.2338Z" fill="#333333"/>
<path d="M358.065 80.4833C359.559 77.6109 363.668 77.6109 365.162 80.4833L370.958 91.627C372.343 94.2898 370.411 97.4727 367.409 97.4727H355.818C352.816 97.4727 350.884 94.2898 352.269 91.627L358.065 80.4833Z" fill="#333333"/>
<path d="M351.246 31.128C351.246 25.7326 356.283 21.3587 361.614 21.3587C366.945 21.3587 371.982 25.7326 371.982 31.128C371.982 36.5234 366.945 38.0479 361.614 38.0479C356.283 38.0479 351.246 36.5234 351.246 31.128Z" fill="#333333"/>
<path d="M365.163 45.8785C363.669 48.7509 359.559 48.7509 358.065 45.8785L352.27 34.7348C350.885 32.072 352.817 28.8892 355.818 28.8892H367.41C370.411 28.8892 372.343 32.072 370.959 34.7348L365.163 45.8785Z" fill="#333333"/>
<path d="M341.886 89.7927C337.677 92.4904 331.746 89.8351 329.081 84.7099C326.415 79.5847 327.309 72.5556 331.518 69.8579C335.727 67.1602 339.435 71.2402 342.101 76.3654C344.766 81.4906 346.095 87.095 341.886 89.7927Z" fill="#333333"/>
<path d="M347.225 69.0387C350.101 69.0387 351.817 72.3379 350.379 75.1026L344.56 86.2913C343.064 89.168 339.305 89.3072 337.865 86.5392L332.046 75.3506C330.606 72.5827 332.594 69.0387 335.587 69.0387L347.225 69.0387Z" fill="#333333"/>
<path d="M380.179 38.9395C384.3 36.0803 390.311 38.5042 393.136 43.5231C395.961 48.5419 395.289 55.6013 391.167 58.4605C387.045 61.3196 383.211 57.3858 380.386 52.3669C377.561 47.3481 376.057 41.7986 380.179 38.9395Z" fill="#333333"/>
<path d="M375.526 59.8869C372.647 59.9985 370.815 56.7439 372.167 53.9204L377.633 42.5096C379.033 39.5863 382.771 39.3195 384.298 42.0339L390.468 52.9936C391.996 55.708 390.141 59.3203 387.16 59.4359L375.526 59.8869Z" fill="#333333"/>
<path d="M331.401 56.4484C327.325 53.5099 326.764 46.4385 329.668 41.4751C332.571 36.5118 338.619 34.2047 342.695 37.1433C346.771 40.0818 345.18 45.6014 342.276 50.5647C339.373 55.528 335.478 59.387 331.401 56.4484Z" fill="#333333"/>
<path d="M350.463 52.2616C351.772 55.1134 349.882 58.3442 347.002 58.1767L335.375 57.5002C332.401 57.3273 330.614 53.683 332.186 50.9967L338.528 40.1565C340.099 37.4702 343.825 37.8 345.177 40.745L350.463 52.2616Z" fill="#333333"/>
<path d="M392.492 70.6561C396.568 73.5946 397.129 80.666 394.226 85.6293C391.322 90.5927 385.274 92.8998 381.198 89.9612C377.122 87.0227 378.713 81.5031 381.617 76.5398C384.521 71.5765 388.416 67.7175 392.492 70.6561Z" fill="#333333"/>
<path d="M373.431 74.8429C372.122 71.9911 374.012 68.7603 376.891 68.9278L388.519 69.6042C391.492 69.7772 393.279 73.4215 391.707 76.1078L385.366 86.948C383.794 89.6343 380.068 89.3045 378.717 86.3595L373.431 74.8429Z" fill="#333333"/>
<ellipse cx="361.327" cy="63.5002" rx="5.43429" ry="5.715" fill="#333333"/>
<ellipse cx="497.797" cy="63.5" rx="57.203" ry="63.5" fill="#333333"/>
<ellipse cx="497.797" cy="63.5" rx="42.9023" ry="47.625" fill="#F0F0F4"/>
<path d="M508.165 95.2338C508.165 100.629 503.128 105.003 497.797 105.003C492.466 105.003 487.429 100.629 487.429 95.2338C487.429 89.8384 492.466 88.314 497.797 88.314C503.128 88.314 508.165 89.8384 508.165 95.2338Z" fill="#333333"/>
<path d="M494.248 80.4833C495.742 77.6109 499.852 77.6109 501.346 80.4833L507.142 91.627C508.527 94.2898 506.594 97.4727 503.593 97.4727H492.001C489 97.4727 487.068 94.2898 488.453 91.627L494.248 80.4833Z" fill="#333333"/>
<path d="M487.43 31.128C487.43 25.7326 492.467 21.3587 497.798 21.3587C503.129 21.3587 508.166 25.7326 508.166 31.128C508.166 36.5234 503.129 38.0479 497.798 38.0479C492.467 38.0479 487.43 36.5234 487.43 31.128Z" fill="#333333"/>
<path d="M501.346 45.8785C499.852 48.7509 495.743 48.7509 494.249 45.8785L488.453 34.7348C487.068 32.072 489 28.8892 492.002 28.8892H503.593C506.595 28.8892 508.527 32.072 507.142 34.7348L501.346 45.8785Z" fill="#333333"/>
<path d="M478.07 89.7927C473.861 92.4904 467.93 89.8351 465.264 84.7099C462.599 79.5847 463.493 72.5556 467.702 69.8579C471.911 67.1602 475.619 71.2402 478.284 76.3654C480.95 81.4906 482.279 87.095 478.07 89.7927Z" fill="#333333"/>
<path d="M483.409 69.0387C486.285 69.0387 488 72.3379 486.562 75.1026L480.743 86.2913C479.247 89.168 475.488 89.3072 474.049 86.5392L468.229 75.3506C466.79 72.5827 468.778 69.0387 471.77 69.0387L483.409 69.0387Z" fill="#333333"/>
<path d="M516.362 38.9395C520.484 36.0803 526.495 38.5042 529.32 43.5231C532.145 48.5419 531.472 55.6013 527.351 58.4605C523.229 61.3196 519.395 57.3858 516.57 52.3669C513.745 47.3481 512.24 41.7986 516.362 38.9395Z" fill="#333333"/>
<path d="M511.709 59.8869C508.83 59.9985 506.998 56.7439 508.351 53.9204L513.816 42.5096C515.216 39.5863 518.954 39.3195 520.482 42.0339L526.651 52.9936C528.179 55.708 526.325 59.3203 523.344 59.4359L511.709 59.8869Z" fill="#333333"/>
<path d="M467.585 56.4484C463.509 53.5099 462.948 46.4385 465.851 41.4751C468.755 36.5118 474.802 34.2047 478.879 37.1433C482.955 40.0818 481.363 45.6014 478.46 50.5647C475.556 55.528 471.661 59.387 467.585 56.4484Z" fill="#333333"/>
<path d="M486.646 52.2616C487.955 55.1134 486.065 58.3442 483.186 58.1767L471.558 57.5002C468.585 57.3273 466.798 53.683 468.37 50.9967L474.711 40.1565C476.283 37.4702 480.009 37.8 481.36 40.745L486.646 52.2616Z" fill="#333333"/>
<path d="M528.675 70.6561C532.752 73.5946 533.313 80.666 530.409 85.6293C527.506 90.5927 521.458 92.8998 517.382 89.9612C513.306 87.0227 514.897 81.5031 517.801 76.5398C520.704 71.5765 524.599 67.7175 528.675 70.6561Z" fill="#333333"/>
<path d="M509.614 74.8429C508.305 71.9911 510.195 68.7603 513.074 68.9278L524.702 69.6042C527.676 69.7772 529.462 73.4215 527.891 76.1078L521.549 86.948C519.978 89.6343 516.252 89.3045 514.9 86.3595L509.614 74.8429Z" fill="#333333"/>
<ellipse cx="497.511" cy="63.5002" rx="5.43429" ry="5.715" fill="#333333"/>
<line x1="479" y1="127" x2="409" y2="127" stroke="#333333" stroke-width="2"/>
<line x1="472" y1="123" x2="421" y2="123" stroke="#333333" stroke-width="2"/>
<path d="M465 118H429" stroke="#333333" stroke-width="2"/>
<line x1="70" y1="127" y2="127" stroke="#333333" stroke-width="2"/>
<line x1="63" y1="123" x2="12" y2="123" stroke="#333333" stroke-width="2"/>
<path d="M57 118H21" stroke="#333333" stroke-width="2"/>
<line x1="207" y1="127" x2="136" y2="127" stroke="#333333" stroke-width="2"/>
<line x1="199" y1="123" x2="148" y2="123" stroke="#333333" stroke-width="2"/>
<path d="M193 118H157" stroke="#333333" stroke-width="2"/>
<line x1="343" y1="127" x2="272" y2="127" stroke="#333333" stroke-width="2"/>
<line x1="336" y1="123" x2="284" y2="123" stroke="#333333" stroke-width="2"/>
<path d="M329 118H293" stroke="#333333" stroke-width="2"/>
</svg>
